<svg width="509" height="97" viewBox="0 0 509 97" fill="none" xmlns="http://www.w3.org/2000/svg">
<path d="M496.837 75.8987C489.267 83.2999 480.059 87.0005 469.208 87.0068C458.356 87.0068 449.148 83.3062 441.578 75.8987C434.008 68.4975 430.226 59.3647 430.232 48.5005C430.232 37.6362 434.021 28.5034 441.578 21.1022C449.148 13.701 458.356 9.99414 469.208 9.99414C480.059 9.99414 489.267 13.6947 496.837 21.1022C504.401 28.5034 508.183 37.6362 508.183 48.5005C508.183 59.3647 504.401 68.4975 496.837 75.8987ZM453.568 64.3718C457.781 68.46 462.994 70.5041 469.208 70.5103C475.421 70.5103 480.597 68.4662 484.735 64.3718C488.942 60.2836 491.049 54.9953 491.049 48.5067C491.049 42.0244 488.942 36.736 484.735 32.6416C480.597 28.5534 475.421 26.5093 469.214 26.5093C463 26.5093 457.787 28.5534 453.574 32.6416C449.429 36.7298 447.36 42.0181 447.367 48.5067C447.367 54.9953 449.436 60.2836 453.568 64.3718Z" fill="white"/>
<path d="M433.12 81.1746L434.458 80.3307L424.531 68.435C420.625 70.5291 416.161 71.648 411.517 71.648C398.015 71.648 388.863 62.384 388.863 48.5005C388.863 34.6169 398.008 25.3529 411.517 25.3529C416.386 25.3529 420.7 26.5156 424.531 28.8972C425.582 27.6595 434.277 17.1766 434.277 17.1766C434.277 17.1766 434.145 17.0515 433.114 16.3827C426.719 12.1507 419.406 9.99414 411.085 9.99414C387.8 9.99414 371.316 25.3529 371.316 48.5005C371.316 71.3292 387.05 87.0068 411.404 87.0068C419.462 87.013 426.7 85.069 433.12 81.1746Z" fill="white"/>
<path d="M290.247 75.8987C282.652 83.2999 273.413 87.0005 262.523 87.0068C251.634 87.0068 242.395 83.3062 234.8 75.8987C227.205 68.4975 223.411 59.3647 223.404 48.5005C223.404 37.6362 227.199 28.5034 234.8 21.1022C242.395 13.701 251.64 9.99414 262.523 9.99414C273.413 9.99414 282.652 13.6947 290.247 21.1022C297.842 28.5034 301.642 37.6362 301.642 48.5005C301.642 59.3647 297.848 68.4975 290.247 75.8987ZM246.833 64.3718C251.053 68.46 256.285 70.5041 262.523 70.5103C268.762 70.5103 273.956 68.4662 278.107 64.3718C282.333 60.2836 284.446 54.9953 284.446 48.5067C284.446 42.0244 282.333 36.736 278.107 32.6416C273.95 28.5534 268.756 26.5093 262.523 26.5093C256.291 26.5093 251.065 28.5534 246.833 32.6416C242.676 36.7298 240.601 42.0181 240.601 48.5067C240.601 54.9953 242.676 60.2774 246.827 64.3718H246.833Z" fill="white"/>
<path d="M357.508 47.1247C363.671 51.0004 366.753 56.5763 366.753 63.84C366.753 70.2535 364.428 75.4731 359.771 79.4988C355.114 83.5244 349.344 85.531 342.462 85.5248H307.881V11.4751H340.317C347.05 11.4751 352.676 13.4504 357.189 17.4011C361.771 21.2767 364.065 26.3588 364.065 32.6348C364.065 38.5608 361.877 43.3929 357.508 47.1247ZM340.324 27.3464H325.084V40.4674H340.324C342.255 40.4674 343.831 39.8673 345.056 38.6671C346.275 37.3919 346.881 35.8103 346.881 33.91C346.881 32.0097 346.268 30.4595 345.056 29.253C343.831 27.9778 342.255 27.3464 340.324 27.3464ZM342.462 69.6534C344.612 69.6534 346.331 69.0158 347.619 67.7468C348.913 66.4091 349.556 64.6776 349.55 62.5648C349.544 60.4457 348.9 58.7579 347.619 57.4889C346.325 56.1449 344.606 55.4761 342.462 55.4761H325.077V69.6534H342.462Z" fill="white"/>
<path d="M203.771 85.5224L188.481 61.1872H175.791V85.5224H158.863V11.479H193.131C200.183 11.479 206.171 13.9482 211.103 18.8802C216.035 23.8123 218.504 29.807 218.504 36.8644C218.504 41.3839 217.235 45.5783 214.697 49.4477C212.235 53.2609 208.953 56.2239 204.865 58.3367L221.955 85.5224H203.771ZM175.785 27.3441V46.3847H193.131C195.457 46.3847 197.432 45.4658 199.051 43.6343C200.745 41.8027 201.589 39.5461 201.589 36.8644C201.589 34.1827 200.739 31.9261 199.051 30.0945C197.432 28.263 195.457 27.3441 193.131 27.3441H175.785Z" fill="white"/>
<path d="M54.1272 39.5844C52.4519 38.4654 50.4891 37.8716 48.4763 37.8716C45.7821 37.8716 43.1942 38.9467 41.2939 40.8533C39.3873 42.7599 38.3184 45.3415 38.3184 48.042C38.3184 50.0548 38.9122 52.0176 40.0311 53.6929C41.1501 55.3682 42.7378 56.6684 44.5944 57.4373C46.4509 58.2062 48.495 58.4062 50.4703 58.0124C52.4394 57.6186 54.2522 56.6496 55.6775 55.2307C57.0964 53.8054 58.0653 51.9989 58.4592 50.0236C58.853 48.0545 58.6467 46.0042 57.8778 44.1476C57.1027 42.2911 55.7962 40.7033 54.1272 39.5844Z" fill="white"/>
<path d="M96.9834 47.8607C96.9772 47.8669 87.0193 47.992 87.0193 47.992C82.206 48.2607 77.8553 51.7426 76.5175 56.3621C72.2856 71.4771 57.5082 79.4471 43.6684 77.1905C31.5477 75.0714 21.196 65.3073 19.6582 51.8551C17.089 29.5889 39.6552 12.9612 60.0586 21.7501C64.4906 23.6192 69.9415 22.4252 73.1733 18.8496C73.1733 18.8496 79.5368 11.1859 79.543 11.1859C67.7974 1.41553 52.6011 -1.9225 38.5051 1.04673C38.4925 1.04673 38.48 1.05299 38.4738 1.05299C38.3738 1.07174 38.2738 1.09675 38.1737 1.1155C38.0737 1.13425 37.9737 1.15923 37.8737 1.18424C37.8424 1.19049 37.8174 1.19676 37.7862 1.20301C17.5579 5.76626 2.37411 22.8316 0.261265 43.4975C-1.32649 58.6375 4.38695 73.815 15.645 84.1604C19.8895 88.0798 24.7653 91.1553 29.9974 93.3182C30.1537 93.3807 30.3162 93.4494 30.4725 93.5119C30.4787 93.5182 30.4912 93.5182 30.4975 93.5244C35.7483 95.631 41.2743 96.775 46.8189 96.9688C46.8564 96.9688 46.9002 96.9688 46.9377 96.975C47.1377 96.9813 47.3378 96.9875 47.5378 96.9937C47.544 96.9937 47.5565 96.9937 47.5628 96.9937C47.7628 97 47.9629 97 48.1629 97C48.2191 97 48.2754 97 48.3254 97C48.4942 97 48.663 97 48.8255 97C48.863 97 48.9005 97 48.9318 97C49.138 97 49.3506 96.9937 49.5569 96.9937C49.5819 96.9937 49.6069 96.9937 49.6319 96.9937C49.8382 96.9875 50.0507 96.9813 50.257 96.975C50.2632 96.975 50.2632 96.975 50.2695 96.975C60.7462 96.5999 71.0979 92.8493 79.5493 85.8107L79.5243 85.7794C90.4261 76.6779 97.1959 62.9319 96.9834 47.8607Z" fill="white"/>
</svg>
